<svg xmlns="http://www.w3.org/2000/svg" viewBox="0 0 32 32" fill="#ffdc32" aria-hidden="true">
  <path d="M12.2 3h7l.7 2.2h1.8v1.5H10V5.2h1.5zM13 7.3h5.5v1a2.75 2.75 0 0 1-5.5 0z"/>
  <path d="m11.8 11 3.9-.6 4 .6 1 7.1-4.4 1.3-5.2-1.7zM11.2 11.5 7.8 8.4 6 4.7 3.8 5.8l2.1 4.7 4.1 3.7zm9.3 0 3.1-3.4 1.5-3.8 2.4.9-1.9 4.9-4 4.1z"/>
  <path d="m11.2 17.7 4.1 1.3-3.2 4.2-5.2-1.8.8-2.7 3.4 1.1zm5.1 1.7 3.9-1.4 3.8 4.1-2.1 3.7-2.5-1.5 1-1.8z"/>
  <path d="M10 30h12v-1.8H10zM2 24l3-4 3 4H6v4H4v-4zm22 0 3-4 3 4h-2v4h-2v-4z"/>
</svg>
